<svg xmlns="http://www.w3.org/2000/svg" xmlns:bx="https://boxy-svg.com" viewBox="0 0 369.89 93.52">
  <defs>
    <bx:guide x="63.909" y="239.992" angle="0"/>
  </defs>
  <rect id="Rechteck_41_Kopie" class="cls-1" width="369.893" height="93.523" rx="22.66" style="fill: rgb(4, 88, 159);"/>
  <path class="cls-2" d="M 270.158 0 L 270.158 65.519 C 276.758 59.793 289.258 61.14 307.058 67.54 C 317.43 71.344 329.322 70.814 339.158 66.109 L 339.158 0 L 270.158 0 Z" style="fill: rgb(255, 255, 255);"/>
  <g id="logo" transform="matrix(1, 0, 0, 1, 72.858263, -13.568374)">
    <path class="cls-3" d="M255.3,54.1c-2.3,1.6-6.8,3.6-13.8,1.8a18.0306,18.0306,0,0,0-1.9-.5c-4.4-2-8.9-4.1-10.7-5.5,5.1.8,12.7,1.6,24.9-.4a13.83,13.83,0,0,1,1.5,4.6m-47.6,1.2-2.1.7a36.9213,36.9213,0,0,1,2.9,4l.6,1.7a36.828,36.828,0,0,1,19-3.7,20.2925,20.2925,0,0,1,4.8.9c-1.8-1.2-3.6-2.3-5.5-3.4A51.1781,51.1781,0,0,0,216.3,54a38.4842,38.4842,0,0,0-7.9,3.2s-.3-.9-.7-1.9" style="fill: rgb(194, 14, 26);"/>
    <path class="cls-4" d="M257.1,52.5a6.5491,6.5491,0,0,1-1.8,1.5c-2.3,1.6-6.8,3.6-13.8,1.8-.7-.2-1.3-.3-1.9-.5-6.4-1.9-10.2-4.4-18.8-5.5-5.8.1-11.7.9-14.9,2.2a12.667,12.667,0,0,1,1.1,1.3c.1.3.4,1.2.7,2s.6,1.9.6,1.9a44.6812,44.6812,0,0,1,7.9-3.1,17.9764,17.9764,0,0,1,6.1-.8c6.6.4,11.8,3.9,17.7,6.7,4.1,1.2,14,2,16.8.8a57.078,57.078,0,0,0,.3-8.3" style="fill: rgb(239, 197, 21);"/>
    <path class="cls-5" d="M223,37.2c-2.6,0-4.2,3.8-4.2,6.5,0,1.1.3,1.6.8,1.6,1.5,0,4-4.4,4.5-7.2l.1-.7c-.3-.1-.7-.1-1.2-.2m3.2,11.5h-3.9a26.6432,26.6432,0,0,1,1-3.8h0c-1.2,2.1-3,4.1-5.1,4.1s-3.4-1.5-3.4-4.6c0-5.5,2.8-10.5,9-10.5a4.8686,4.8686,0,0,1,1.2.1l.6-3.3h0l-2.4-.3.5-2.7q3.15-.3,6.3-.3Zm23.2,0h-3.8l1.4-8.9c.3-1.5.1-2-.6-2-1.3,0-3.7,3.5-4.2,7l-.6,3.9h-3.8l1.4-8.9c.3-1.5.1-2-.6-2-1.3,0-3.6,3.5-4.2,6.9l-.7,4h-3.9l2.1-11.2v-.1l-2.4-.3.5-2.7c2-.2,4.1-.3,6.1-.3a22.5948,22.5948,0,0,1-1.1,3.7h.1c1.3-2.2,2.6-4,5.1-4a2.6387,2.6387,0,0,1,2.8,2.3v.6a5.8526,5.8526,0,0,1-.2,1.3h0c1.3-2.4,2.9-4.2,5.4-4.2,2.8,0,3.3,2,2.8,4.7Z" style="fill: rgb(43, 57, 130);"/>
  </g>
  <text style="fill: rgb(255, 255, 255); font-family: Arial; font-size: 38px; font-weight: 700; white-space: pre;" x="25.82" y="59.965">ПРОДУКЦІЯ</text>
</svg>