<?xml version="1.0" encoding="utf-8"?>
<svg id="Ebene_1" viewBox="0 0 300 138" width="300" height="138" xmlns="http://www.w3.org/2000/svg">
  <defs>
    <style>.cls-1{fill:#04589f;}.cls-2{fill:#fff;}.cls-3{fill:#c20e1a;}.cls-4{fill:#efc515;}.cls-5{fill:#2b3982;}</style>
  </defs>
  <rect id="Rechteck_41_Kopie" class="cls-1" width="300" height="138" rx="22.66"/>
  <path class="cls-2" d="M 204.733 0 L 204.733 60.157 C 211.333 54.899 223.833 56.136 241.633 62.013 C 252.004 65.506 263.897 65.018 273.733 60.698 L 273.733 0 L 204.733 0 Z" style=""/>
  <g id="logo" transform="matrix(1, 0, 0, 1, 7.433345, -16.341078)">
    <path class="cls-3" d="M255.3,54.1c-2.3,1.6-6.8,3.6-13.8,1.8a18.0306,18.0306,0,0,0-1.9-.5c-4.4-2-8.9-4.1-10.7-5.5,5.1.8,12.7,1.6,24.9-.4a13.83,13.83,0,0,1,1.5,4.6m-47.6,1.2-2.1.7a36.9213,36.9213,0,0,1,2.9,4l.6,1.7a36.828,36.828,0,0,1,19-3.7,20.2925,20.2925,0,0,1,4.8.9c-1.8-1.2-3.6-2.3-5.5-3.4A51.1781,51.1781,0,0,0,216.3,54a38.4842,38.4842,0,0,0-7.9,3.2s-.3-.9-.7-1.9"/>
    <path class="cls-4" d="M257.1,52.5a6.5491,6.5491,0,0,1-1.8,1.5c-2.3,1.6-6.8,3.6-13.8,1.8-.7-.2-1.3-.3-1.9-.5-6.4-1.9-10.2-4.4-18.8-5.5-5.8.1-11.7.9-14.9,2.2a12.667,12.667,0,0,1,1.1,1.3c.1.3.4,1.2.7,2s.6,1.9.6,1.9a44.6812,44.6812,0,0,1,7.9-3.1,17.9764,17.9764,0,0,1,6.1-.8c6.6.4,11.8,3.9,17.7,6.7,4.1,1.2,14,2,16.8.8a57.078,57.078,0,0,0,.3-8.3"/>
    <path class="cls-5" d="M223,37.2c-2.6,0-4.2,3.8-4.2,6.5,0,1.1.3,1.6.8,1.6,1.5,0,4-4.4,4.5-7.2l.1-.7c-.3-.1-.7-.1-1.2-.2m3.2,11.5h-3.9a26.6432,26.6432,0,0,1,1-3.8h0c-1.2,2.1-3,4.1-5.1,4.1s-3.4-1.5-3.4-4.6c0-5.5,2.8-10.5,9-10.5a4.8686,4.8686,0,0,1,1.2.1l.6-3.3h0l-2.4-.3.5-2.7q3.15-.3,6.3-.3Zm23.2,0h-3.8l1.4-8.9c.3-1.5.1-2-.6-2-1.3,0-3.7,3.5-4.2,7l-.6,3.9h-3.8l1.4-8.9c.3-1.5.1-2-.6-2-1.3,0-3.6,3.5-4.2,6.9l-.7,4h-3.9l2.1-11.2v-.1l-2.4-.3.5-2.7c2-.2,4.1-.3,6.1-.3a22.5948,22.5948,0,0,1-1.1,3.7h.1c1.3-2.2,2.6-4,5.1-4a2.6387,2.6387,0,0,1,2.8,2.3v.6a5.8526,5.8526,0,0,1-.2,1.3h0c1.3-2.4,2.9-4.2,5.4-4.2,2.8,0,3.3,2,2.8,4.7Z"/>
  </g>
  <text style="fill: rgb(255, 255, 255); font-family: Acrom; font-size: 32px; font-weight: 800; white-space: pre;" transform="matrix(1, 0, 0, 1, -19.301871, 21.966578)"><tspan x="37.669" y="38.708">ПРОДУКТ</tspan><tspan x="37.669" dy="1em">​</tspan></text>
  <text style="fill: rgb(255, 255, 255); font-family: Acrom; font-size: 24px; font-weight: 700; white-space: pre;" x="19.483" y="99.871">вiд виробника DM</text>
</svg>